<svg width="25" height="28" viewBox="0 0 25 28" fill="none" xmlns="http://www.w3.org/2000/svg">
<path fill-rule="evenodd" clip-rule="evenodd" d="M16.7071 7.29289C16.5196 7.10536 16.2652 7 16 7H2C1.73478 7 1.48043 7.10536 1.29289 7.29289C1.10536 7.48043 1 7.73478 1 8V22C1 22.2652 1.10536 22.5196 1.29289 22.7071C1.48043 22.8946 1.73478 23 2 23H16C16.2652 23 16.5196 22.8946 16.7071 22.7071C16.8946 22.5196 17 22.2652 17 22V17.8L22.213 21.45C22.288 21.5025 22.3759 21.5335 22.4672 21.5395C22.5586 21.5455 22.6498 21.5263 22.731 21.484C22.8122 21.4417 22.8802 21.3779 22.9276 21.2996C22.9751 21.2214 23.0001 21.1315 23 21.04V8.96C23.0001 8.86846 22.9751 8.77865 22.9276 8.70035C22.8802 8.62206 22.8122 8.55829 22.731 8.51599C22.6498 8.4737 22.5586 8.4545 22.4672 8.4605C22.3759 8.4665 22.288 8.49746 22.213 8.55L17 12.2V8C17 7.73478 16.8946 7.48043 16.7071 7.29289ZM3 9H15V21H3V9ZM17 14.64L21 11.84V18.158L17 15.358V14.64Z" fill="white"/>
<line opacity="0.99" x1="2.11736" y1="2.12963" x2="23.1296" y2="25.8826" stroke="#471A1A" stroke-width="3" stroke-linecap="round"/>
</svg>
