<svg width="22" height="16" viewBox="0 0 22 16" fill="none" xmlns="http://www.w3.org/2000/svg">
<path fill-rule="evenodd" clip-rule="evenodd" d="M15.7071 0.292893C15.5196 0.105357 15.2652 0 15 0H1C0.734784 0 0.48043 0.105357 0.292893 0.292893C0.105357 0.48043 0 0.734784 0 1V15C0 15.2652 0.105357 15.5196 0.292893 15.7071C0.48043 15.8946 0.734784 16 1 16H15C15.2652 16 15.5196 15.8946 15.7071 15.7071C15.8946 15.5196 16 15.2652 16 15V10.8L21.213 14.45C21.288 14.5025 21.3759 14.5335 21.4672 14.5395C21.5586 14.5455 21.6498 14.5263 21.731 14.484C21.8122 14.4417 21.8802 14.3779 21.9276 14.2996C21.9751 14.2214 22.0001 14.1315 22 14.04V1.96C22.0001 1.86846 21.9751 1.77865 21.9276 1.70035C21.8802 1.62206 21.8122 1.55829 21.731 1.51599C21.6498 1.4737 21.5586 1.4545 21.4672 1.4605C21.3759 1.4665 21.288 1.49746 21.213 1.55L16 5.2V1C16 0.734784 15.8946 0.48043 15.7071 0.292893ZM2 2H14V14H2V2ZM16 7.64L20 4.84V11.158L16 8.358V7.64Z" fill="white"/>
</svg>
