<svg width="36" height="36" viewBox="0 0 36 36" fill="none" xmlns="http://www.w3.org/2000/svg">
<path d="M5.27221 30.7278C3.59828 29.0582 2.27078 27.0743 1.366 24.89C0.461221 22.7058 -0.00299941 20.3642 1.45827e-05 18C1.45827e-05 8.0586 8.05861 0 18 0C27.9414 0 36 8.0586 36 18C36 27.9414 27.9414 36 18 36H1.45827e-05L5.27221 30.7278ZM10.8 19.8C10.8 21.7096 11.5586 23.5409 12.9088 24.8912C14.2591 26.2414 16.0904 27 18 27C19.9096 27 21.7409 26.2414 23.0912 24.8912C24.4414 23.5409 25.2 21.7096 25.2 19.8H10.8Z" fill="white"/>
</svg>
