<svg width="196" height="177" viewBox="0 0 196 177" fill="none" xmlns="http://www.w3.org/2000/svg">
<path d="M0.492689 58.7229C0.487524 51.0263 1.99699 43.4044 4.93464 36.2936C7.87219 29.1826 12.1802 22.7224 17.6121 17.2828C23.0438 11.8434 29.4928 7.53132 36.5894 4.59367C43.686 1.65602 51.291 0.150613 58.9689 0.163411H136.937C169.226 0.163411 195.413 26.4927 195.413 58.7229V176.018H58.9689C26.6803 176.018 0.492689 149.688 0.492689 117.458V58.7229ZM117.445 78.3209V97.8603H136.937V78.3209H117.445ZM58.9689 78.3209V97.8603H78.4609V78.3209H58.9689Z" fill="url(#paint0_linear_140_133)"/>
<path d="M110.134 58.7815H58.9677C53.5852 58.7815 49.2217 63.1556 49.2217 68.5512V107.63C49.2217 113.026 53.5852 117.4 58.9677 117.4H110.134C114.171 117.4 117.444 114.119 117.444 110.072C117.444 104.035 124.321 100.588 129.139 104.211L132.063 106.409C138.086 110.937 146.682 106.629 146.682 99.0814V77.0997C146.682 69.5526 138.086 65.2438 132.063 69.7724L129.139 71.9706C124.321 75.5932 117.444 72.1464 117.444 66.1088C117.444 62.0621 114.171 58.7815 110.134 58.7815Z" fill="white"/>
<defs>
<linearGradient id="paint0_linear_140_133" x1="201.955" y1="2.82778" x2="20.7866" y2="167.865" gradientUnits="userSpaceOnUse">
<stop offset="0.0295815" stop-color="#4591FF"/>
<stop offset="1" stop-color="#0066FA"/>
</linearGradient>
</defs>
</svg>
