<svg width="19" height="21" viewBox="0 0 19 21" fill="none" xmlns="http://www.w3.org/2000/svg">
<path fill-rule="evenodd" clip-rule="evenodd" d="M2 6C2 9.315 4.685 12 8 12C11.315 12 14 9.315 14 6C14 2.685 11.315 0 8 0C4.685 0 2 2.685 2 6ZM13.2925 13.6365C12.9968 13.9322 12.9968 14.4117 13.2927 14.7074V14.7074C13.7698 15.1843 13.4321 16 12.7574 16H11.8C11.3582 16 11 16.3582 11 16.8V17.2C11 17.6418 11.3582 18 11.8 18H12.7574C13.4321 18 13.7698 18.8157 13.2927 19.2926V19.2926C12.9968 19.5883 12.9968 20.0678 13.2925 20.3635L13.6062 20.6772C13.9187 20.9897 14.4253 20.9897 14.7377 20.6772L17.8485 17.5656C18.1608 17.2532 18.1608 16.7468 17.8485 16.4344L14.7377 13.3228C14.4253 13.0103 13.9187 13.0103 13.6062 13.3228L13.2925 13.6365Z" fill="white"/>
<path d="M9.39459 13.1205C9.7538 13.1841 10 13.5069 10 13.8717V20.2C10 20.6418 9.64183 21 9.2 21H0.799797C0.358049 21 -0.00423573 20.6411 0.039743 20.2015C0.134282 19.2566 0.396533 18.3339 0.816299 17.4774C1.35368 16.3809 2.13494 15.4219 3.10022 14.674C4.0655 13.9261 5.18918 13.4091 6.38515 13.1626C7.37842 12.9579 8.39966 12.9443 9.39459 13.1205Z" fill="white"/>
</svg>
