<svg width="24" height="24" viewBox="0 0 24 24" fill="none" xmlns="http://www.w3.org/2000/svg">
<path d="M13.8496 14.2147C13.9384 14.2358 14 14.3157 14 14.4069V21.8C14 21.9105 13.9105 22 13.8 22H4.19995C4.08951 22 3.99972 21.9105 4.00245 21.8001C4.03096 20.6476 4.30827 19.514 4.8163 18.4774C5.35368 17.3809 6.13494 16.4219 7.10022 15.674C8.0655 14.9261 9.18918 14.4091 10.3852 14.1626C11.5305 13.9266 12.7131 13.9446 13.8496 14.2147ZM12 13C8.685 13 6 10.315 6 7C6 3.685 8.685 1 12 1C15.315 1 18 3.685 18 7C18 10.315 15.315 13 12 13ZM17.8 17C17.9105 17 18 16.9105 18 16.8V13.9491C18 13.7759 18.2051 13.6846 18.3338 13.8004L22.8348 17.8513C22.9231 17.9308 22.9231 18.0692 22.8348 18.1487L18.3338 22.1996C18.2051 22.3154 18 22.2241 18 22.0509V19.2C18 19.0895 17.9105 19 17.8 19H15.2C15.0895 19 15 18.9105 15 18.8V17.2C15 17.0895 15.0895 17 15.2 17H17.8Z" fill="white"/>
</svg>
