<svg width="20" height="21" viewBox="0 0 20 21" fill="none" xmlns="http://www.w3.org/2000/svg">
<path d="M9.9999 0C10.6565 0 11.3067 0.129329 11.9133 0.380602C12.5199 0.631876 13.0711 1.00017 13.5354 1.46447C13.9997 1.92876 14.368 2.47995 14.6193 3.08658C14.8706 3.69321 14.9999 4.34339 14.9999 5V11C14.9999 12.3261 14.4731 13.5979 13.5354 14.5355C12.5977 15.4732 11.326 16 9.9999 16C8.67381 16 7.40204 15.4732 6.46436 14.5355C5.52668 13.5979 4.99989 12.3261 4.99989 11V5C4.99989 3.67392 5.52668 2.40215 6.46436 1.46447C7.40204 0.526784 8.67381 0 9.9999 0ZM0.191895 12.962L2.15389 12.569C2.51829 14.3814 3.49892 16.0118 4.9292 17.1832C6.35948 18.3545 8.15118 18.9946 9.9999 18.9946C11.8486 18.9946 13.6403 18.3545 15.0706 17.1832C16.5009 16.0118 17.4815 14.3814 17.8459 12.569L19.8079 12.962C18.8959 17.545 14.8499 21 9.9999 21C5.1499 21 1.10389 17.545 0.191895 12.962Z" fill="#363636"/>
</svg>
