<svg width="266" height="266" viewBox="0 0 266 266" fill="none" xmlns="http://www.w3.org/2000/svg">
<circle cx="133" cy="133" r="127" fill="#003C93"/>
<circle cx="133" cy="133" r="130" stroke="white" stroke-opacity="0.24" stroke-width="6"/>
<path d="M121.88 155.135C120.84 155.135 119.95 154.915 119.21 154.475C118.47 154.035 117.9 153.41 117.5 152.6C117.11 151.79 116.915 150.825 116.915 149.705C116.915 148.595 117.11 147.635 117.5 146.825C117.9 146.015 118.47 145.39 119.21 144.95C119.95 144.51 120.84 144.29 121.88 144.29C122.5 144.29 123.09 144.38 123.65 144.56C124.21 144.74 124.695 144.995 125.105 145.325C125.275 145.445 125.37 145.585 125.39 145.745C125.42 145.905 125.395 146.05 125.315 146.18C125.235 146.3 125.12 146.38 124.97 146.42C124.83 146.45 124.67 146.4 124.49 146.27C123.78 145.7 122.92 145.415 121.91 145.415C120.72 145.415 119.81 145.79 119.18 146.54C118.55 147.29 118.235 148.345 118.235 149.705C118.235 151.075 118.55 152.135 119.18 152.885C119.81 153.635 120.72 154.01 121.91 154.01C122.92 154.01 123.79 153.72 124.52 153.14C124.7 153.02 124.86 152.975 125 153.005C125.15 153.035 125.26 153.11 125.33 153.23C125.41 153.35 125.44 153.485 125.42 153.635C125.4 153.785 125.315 153.92 125.165 154.04C124.735 154.4 124.24 154.675 123.68 154.865C123.12 155.045 122.52 155.135 121.88 155.135ZM139.713 155.105C139.303 155.105 139.098 154.89 139.098 154.46V145.055C139.098 144.635 139.308 144.425 139.728 144.425H143.283C144.423 144.425 145.293 144.69 145.893 145.22C146.503 145.75 146.808 146.505 146.808 147.485C146.808 148.265 146.593 148.905 146.163 149.405C145.743 149.905 145.143 150.23 144.363 150.38C144.823 150.54 145.218 150.93 145.548 151.55L146.988 154.235C147.098 154.445 147.118 154.645 147.048 154.835C146.978 155.015 146.818 155.105 146.568 155.105C146.398 155.105 146.258 155.07 146.148 155C146.038 154.92 145.943 154.8 145.863 154.64L144.228 151.61C143.998 151.18 143.733 150.895 143.433 150.755C143.133 150.605 142.738 150.53 142.248 150.53H140.328V154.46C140.328 154.89 140.123 155.105 139.713 155.105ZM140.328 149.555H143.103C144.763 149.555 145.593 148.865 145.593 147.485C145.593 146.125 144.763 145.445 143.103 145.445H140.328V149.555ZM165.199 155.135C164.219 155.135 163.364 154.915 162.634 154.475C161.914 154.025 161.354 153.395 160.954 152.585C160.564 151.775 160.369 150.815 160.369 149.705C160.369 148.595 160.564 147.635 160.954 146.825C161.344 146.015 161.899 145.39 162.619 144.95C163.349 144.51 164.209 144.29 165.199 144.29C166.199 144.29 167.059 144.51 167.779 144.95C168.509 145.39 169.069 146.015 169.459 146.825C169.859 147.625 170.059 148.58 170.059 149.69C170.059 150.8 169.859 151.765 169.459 152.585C169.059 153.395 168.494 154.025 167.764 154.475C167.044 154.915 166.189 155.135 165.199 155.135ZM165.199 154.04C166.329 154.04 167.204 153.66 167.824 152.9C168.444 152.14 168.754 151.075 168.754 149.705C168.754 148.335 168.444 147.275 167.824 146.525C167.204 145.765 166.329 145.385 165.199 145.385C164.089 145.385 163.224 145.765 162.604 146.525C161.984 147.275 161.674 148.335 161.674 149.705C161.674 151.065 161.984 152.13 162.604 152.9C163.224 153.66 164.089 154.04 165.199 154.04ZM187.378 155.135C186.658 155.135 185.978 155.05 185.338 154.88C184.708 154.7 184.163 154.44 183.703 154.1C183.543 153.99 183.448 153.86 183.418 153.71C183.388 153.56 183.403 153.42 183.463 153.29C183.533 153.16 183.633 153.075 183.763 153.035C183.893 152.985 184.043 153.015 184.213 153.125C184.663 153.455 185.143 153.69 185.653 153.83C186.163 153.97 186.738 154.04 187.378 154.04C188.278 154.04 188.943 153.875 189.373 153.545C189.813 153.205 190.033 152.76 190.033 152.21C190.033 151.77 189.873 151.42 189.553 151.16C189.243 150.9 188.718 150.695 187.978 150.545L186.418 150.23C185.478 150.03 184.773 149.705 184.303 149.255C183.843 148.795 183.613 148.185 183.613 147.425C183.613 146.795 183.773 146.245 184.093 145.775C184.423 145.305 184.878 144.94 185.458 144.68C186.038 144.42 186.708 144.29 187.468 144.29C188.098 144.29 188.683 144.38 189.223 144.56C189.773 144.73 190.268 144.99 190.708 145.34C190.848 145.45 190.928 145.58 190.948 145.73C190.978 145.87 190.958 146 190.888 146.12C190.818 146.24 190.718 146.32 190.588 146.36C190.458 146.39 190.303 146.35 190.123 146.24C189.723 145.93 189.303 145.71 188.863 145.58C188.433 145.45 187.963 145.385 187.453 145.385C186.663 145.385 186.033 145.57 185.563 145.94C185.093 146.3 184.858 146.78 184.858 147.38C184.858 147.86 185.003 148.24 185.293 148.52C185.593 148.8 186.078 149.005 186.748 149.135L188.308 149.465C189.318 149.675 190.063 149.995 190.543 150.425C191.033 150.845 191.278 151.42 191.278 152.15C191.278 152.74 191.118 153.26 190.798 153.71C190.488 154.16 190.038 154.51 189.448 154.76C188.868 155.01 188.178 155.135 187.378 155.135ZM208.306 155.135C207.586 155.135 206.906 155.05 206.266 154.88C205.636 154.7 205.091 154.44 204.631 154.1C204.471 153.99 204.376 153.86 204.346 153.71C204.316 153.56 204.331 153.42 204.391 153.29C204.461 153.16 204.561 153.075 204.691 153.035C204.821 152.985 204.971 153.015 205.141 153.125C205.591 153.455 206.071 153.69 206.581 153.83C207.091 153.97 207.666 154.04 208.306 154.04C209.206 154.04 209.871 153.875 210.301 153.545C210.741 153.205 210.961 152.76 210.961 152.21C210.961 151.77 210.801 151.42 210.481 151.16C210.171 150.9 209.646 150.695 208.906 150.545L207.346 150.23C206.406 150.03 205.701 149.705 205.231 149.255C204.771 148.795 204.541 148.185 204.541 147.425C204.541 146.795 204.701 146.245 205.021 145.775C205.351 145.305 205.806 144.94 206.386 144.68C206.966 144.42 207.636 144.29 208.396 144.29C209.026 144.29 209.611 144.38 210.151 144.56C210.701 144.73 211.196 144.99 211.636 145.34C211.776 145.45 211.856 145.58 211.876 145.73C211.906 145.87 211.886 146 211.816 146.12C211.746 146.24 211.646 146.32 211.516 146.36C211.386 146.39 211.231 146.35 211.051 146.24C210.651 145.93 210.231 145.71 209.791 145.58C209.361 145.45 208.891 145.385 208.381 145.385C207.591 145.385 206.961 145.57 206.491 145.94C206.021 146.3 205.786 146.78 205.786 147.38C205.786 147.86 205.931 148.24 206.221 148.52C206.521 148.8 207.006 149.005 207.676 149.135L209.236 149.465C210.246 149.675 210.991 149.995 211.471 150.425C211.961 150.845 212.206 151.42 212.206 152.15C212.206 152.74 212.046 153.26 211.726 153.71C211.416 154.16 210.966 154.51 210.376 154.76C209.796 155.01 209.106 155.135 208.306 155.135ZM229.01 154.505C228.69 154.505 228.53 154.34 228.53 154.01V151.16H225.725C225.405 151.16 225.245 151.005 225.245 150.695C225.245 150.385 225.405 150.23 225.725 150.23H228.53V147.47C228.53 147.14 228.69 146.975 229.01 146.975C229.33 146.975 229.49 147.14 229.49 147.47V150.23H232.295C232.615 150.23 232.775 150.385 232.775 150.695C232.775 151.005 232.615 151.16 232.295 151.16H229.49V154.01C229.49 154.34 229.33 154.505 229.01 154.505Z" fill="white"/>
<path d="M194.741 111.305C195.082 110.553 195.696 110.194 196.583 110.228C197.026 110.228 197.435 110.416 197.81 110.792C198.185 111.168 198.373 111.527 198.373 111.869C198.373 112.313 198.304 112.706 198.168 113.048L190.854 130.531C190.65 130.941 190.343 131.3 189.934 131.608C189.558 131.915 189.098 132.069 188.553 132.069H188.144C187.632 132.069 187.172 131.915 186.763 131.608C186.354 131.3 186.047 130.941 185.842 130.531L178.579 113.048C178.443 112.706 178.375 112.348 178.375 111.972C178.375 111.561 178.546 111.168 178.886 110.792C179.227 110.416 179.637 110.228 180.114 110.228C181 110.228 181.614 110.587 181.955 111.305L188.348 127.66L194.741 111.305Z" fill="white"/>
<path d="M202.873 112.177C202.873 111.596 203.061 111.134 203.436 110.793C203.811 110.416 204.271 110.228 204.817 110.228C205.362 110.228 205.806 110.416 206.146 110.793C206.487 111.134 206.658 111.596 206.658 112.177V130.173C206.658 130.685 206.487 131.129 206.146 131.505C205.806 131.881 205.362 132.07 204.817 132.07C204.271 132.07 203.811 131.881 203.436 131.505C203.061 131.129 202.873 130.685 202.873 130.173V112.177ZM207.067 103.922C207.067 104.538 206.862 105.05 206.453 105.46C206.044 105.871 205.533 106.076 204.919 106.076H204.663C204.049 106.076 203.538 105.871 203.129 105.46C202.754 105.05 202.566 104.538 202.566 103.922V103.769C202.566 103.153 202.771 102.641 203.18 102.23C203.589 101.82 204.084 101.615 204.663 101.615H204.919C205.533 101.615 206.044 101.82 206.453 102.23C206.862 102.641 207.067 103.153 207.067 103.769V103.922Z" fill="white"/>
<path d="M229.469 129.096C227.389 131.215 225.002 132.274 222.308 132.274C219.649 132.274 217.331 131.334 215.353 129.455C213.239 127.335 212.165 124.567 212.131 121.149C212.131 117.799 213.205 115.048 215.353 112.894C217.296 110.946 219.615 109.989 222.308 110.023C225.002 110.023 227.389 111.083 229.469 113.202V102.897C229.469 102.35 229.639 101.906 229.98 101.564C230.355 101.188 230.816 101 231.361 101C231.907 101 232.35 101.188 232.691 101.564C233.066 101.906 233.254 102.35 233.254 102.897V130.172C233.254 130.685 233.066 131.129 232.691 131.505C232.35 131.881 231.907 132.069 231.361 132.069C230.816 132.069 230.355 131.881 229.98 131.505C229.639 131.129 229.469 130.685 229.469 130.172V129.096ZM229.469 116.74C227.559 114.621 225.343 113.578 222.82 113.612C219.615 113.612 217.518 115.031 216.529 117.868C216.188 118.825 216.001 119.919 215.966 121.149C215.966 123.541 216.614 125.438 217.91 126.84C219.104 128.104 220.74 128.72 222.82 128.686C225.343 128.686 227.559 127.643 229.469 125.558V116.74Z" fill="white"/>
<path d="M146.613 102.333C147.398 102.333 148.045 102.606 148.557 103.153C149.102 103.7 149.375 104.35 149.375 105.102V130.172C149.375 130.685 149.188 131.129 148.812 131.505C148.437 131.881 147.994 132.069 147.483 132.069C146.971 132.069 146.528 131.881 146.153 131.505C145.778 131.129 145.59 130.685 145.59 130.172V106.332L135.873 130.326C135.668 130.839 135.327 131.266 134.85 131.608C134.372 131.915 133.827 132.069 133.213 132.069C132.599 132.069 132.054 131.915 131.576 131.608C131.099 131.3 130.741 130.873 130.502 130.326L120.836 106.332V130.172C120.836 130.685 120.648 131.129 120.273 131.505C119.898 131.881 119.438 132.069 118.892 132.069C118.381 132.069 117.938 131.881 117.562 131.505C117.187 131.129 117 130.685 117 130.172V105.102C117 104.35 117.256 103.7 117.767 103.153C118.313 102.606 118.978 102.333 119.762 102.333H121.143C121.688 102.333 122.183 102.504 122.626 102.846C123.103 103.187 123.461 103.598 123.7 104.076L133.213 127.865L142.726 104.076C142.931 103.598 143.255 103.187 143.698 102.846C144.175 102.504 144.704 102.333 145.283 102.333H146.613Z" fill="#999999"/>
<path d="M159.297 122.533C159.536 124.413 160.252 125.917 161.445 127.045C162.673 128.139 164.344 128.686 166.457 128.686C168.606 128.686 170.43 128.344 171.93 127.66C172.407 127.421 172.834 127.301 173.209 127.301C173.584 127.267 173.925 127.404 174.232 127.711C174.573 128.019 174.743 128.361 174.743 128.737C174.743 129.489 174.436 130.019 173.822 130.326C173.243 130.634 172.714 130.907 172.237 131.147C171.76 131.386 171.248 131.591 170.703 131.762C169.441 132.104 167.975 132.274 166.304 132.274C162.86 132.274 160.184 131.317 158.274 129.403C156.399 127.455 155.461 124.704 155.461 121.149C155.461 118.073 156.262 115.509 157.865 113.459C159.672 111.169 162.212 110.023 165.486 110.023C168.623 110.023 171.095 111.083 172.902 113.202C174.607 115.185 175.459 117.663 175.459 120.636C175.459 121.149 175.272 121.593 174.896 121.969C174.556 122.345 174.112 122.533 173.567 122.533H159.297ZM165.486 113.254C162.997 113.254 161.189 114.364 160.064 116.586C159.655 117.372 159.4 118.312 159.297 119.406H171.674C171.572 117.423 170.839 115.851 169.475 114.689C168.384 113.732 167.054 113.254 165.486 113.254Z" fill="#999999"/>
<path d="M36.9832 117.479C36.9813 114.722 37.5221 111.991 38.5745 109.444C39.6269 106.896 41.1702 104.582 43.1162 102.633C45.0621 100.684 47.3725 99.1396 49.9148 98.0872C52.4572 97.0348 55.1817 96.4954 57.9323 96.5H85.8645C97.4319 96.5 106.814 105.933 106.814 117.479V159.5H57.9323C46.3649 159.5 36.9832 150.068 36.9832 138.521V117.479ZM78.8815 124.5V131.5H85.8645V124.5H78.8815ZM57.9323 124.5V131.5H64.9154V124.5H57.9323Z" fill="url(#paint0_linear_135_93)"/>
<path d="M78.8816 124.5V131.5H85.8646V124.5H78.8816Z" fill="#0066FA"/>
<path d="M57.9321 124.5V131.5H64.9152V124.5H57.9321Z" fill="#0066FA"/>
<path d="M76.2627 117.5H57.9322C56.0039 117.5 54.4407 119.067 54.4407 121V135C54.4407 136.933 56.0039 138.5 57.9322 138.5H76.2627C77.7089 138.5 78.8813 137.325 78.8813 135.875C78.8813 133.712 81.345 132.477 83.0712 133.775L84.1186 134.562C86.2764 136.185 89.3559 134.641 89.3559 131.938V124.062C89.3559 121.359 86.2764 119.815 84.1186 121.438L83.0712 122.225C81.345 123.523 78.8813 122.288 78.8813 120.125C78.8813 118.675 77.7089 117.5 76.2627 117.5Z" fill="white"/>
<defs>
<linearGradient id="paint0_linear_135_93" x1="109.157" y1="97.4545" x2="44.2535" y2="156.579" gradientUnits="userSpaceOnUse">
<stop offset="0.0295815" stop-color="#4591FF"/>
<stop offset="1" stop-color="#0066FA"/>
</linearGradient>
</defs>
</svg>
