<svg width="70" height="70" viewBox="0 0 70 70" fill="none" xmlns="http://www.w3.org/2000/svg">
<path d="M26.1104 32.8542C24.0467 32.8542 22.0675 32.0344 20.6082 30.5751C19.149 29.1158 18.3292 27.1366 18.3292 25.0729C18.3292 23.0092 19.149 21.03 20.6082 19.5707C22.0675 18.1115 24.0467 17.2917 26.1104 17.2917C28.1741 17.2917 30.1533 18.1115 31.6126 19.5707C33.0719 21.03 33.8917 23.0092 33.8917 25.0729C33.8917 27.1366 33.0719 29.1158 31.6126 30.5751C30.1533 32.0344 28.1741 32.8542 26.1104 32.8542ZM27.6667 61.3785V49.8C27.6667 48.1123 28.1647 46.5595 29.0638 45.1727C25.9813 44.7342 22.8412 44.9435 19.8441 45.7873C16.8471 46.6311 14.059 48.0908 11.658 50.0732C15.4382 55.6673 21.1309 59.6887 27.6667 61.382V61.3785ZM8.48329 43.7825C13.5342 40.0447 19.654 38.0318 25.9375 38.0417C29.5445 38.0417 33.0029 38.6918 36.1984 39.8815C39.2348 38.6953 42.8557 38.0417 46.6875 38.0417C52.4283 38.0417 57.7023 39.508 61.2332 42.0395C62.4006 37.8545 62.5659 33.4533 61.7157 29.1925C60.8655 24.9317 59.0238 20.9311 56.3398 17.5145C53.6557 14.0979 50.2047 11.3616 46.2662 9.52696C42.3278 7.69236 38.0126 6.81111 33.6702 6.9546C29.3278 7.09808 25.0802 8.26227 21.2714 10.3529C17.4627 12.4434 14.1998 15.4017 11.7471 18.988C9.29444 22.5743 7.72086 26.6878 7.15382 30.9954C6.58679 35.303 7.04224 39.6837 8.48329 43.7825ZM58.3732 48.7141C57.0141 46.8708 52.4664 44.9583 46.6875 44.9583C39.7501 44.9583 34.5833 47.7146 34.5833 49.8V62.25C39.383 62.2527 44.1006 61.006 48.2724 58.6327C52.4442 56.2594 55.9264 52.8412 58.3767 48.7141H58.3732ZM34.5833 69.1667C15.483 69.1667 0 53.6837 0 34.5833C0 15.483 15.483 0 34.5833 0C53.6837 0 69.1667 15.483 69.1667 34.5833C69.1667 53.6837 53.6837 69.1667 34.5833 69.1667ZM46.6875 36.3125C44.8531 36.3125 43.0938 35.5838 41.7967 34.2867C40.4996 32.9895 39.7708 31.2302 39.7708 29.3958C39.7708 27.5614 40.4996 25.8021 41.7967 24.505C43.0938 23.2079 44.8531 22.4792 46.6875 22.4792C48.5219 22.4792 50.2812 23.2079 51.5783 24.505C52.8754 25.8021 53.6042 27.5614 53.6042 29.3958C53.6042 31.2302 52.8754 32.9895 51.5783 34.2867C50.2812 35.5838 48.5219 36.3125 46.6875 36.3125Z" fill="white" fill-opacity="0.15"/>
</svg>
