<svg width="21" height="21" viewBox="0 0 21 21" fill="none" xmlns="http://www.w3.org/2000/svg">
<path d="M11.879 15.1122L7.40774 12.6735C6.97855 13.0996 6.43283 13.389 5.83938 13.5053C5.24594 13.6217 4.63133 13.5597 4.07305 13.3272C3.51477 13.0948 3.03781 12.7023 2.7023 12.1991C2.36679 11.696 2.18774 11.1048 2.18774 10.5C2.18774 9.89529 2.36679 9.30409 2.7023 8.80095C3.03781 8.29782 3.51477 7.90528 4.07305 7.67282C4.63133 7.44037 5.24594 7.3784 5.83938 7.49474C6.43283 7.61107 6.97855 7.9005 7.40774 8.32654L11.879 5.88791C11.7256 5.16843 11.8364 4.41779 12.191 3.77326C12.5456 3.12873 13.1204 2.63338 13.8102 2.37779C14.5 2.1222 15.2588 2.12346 15.9478 2.38134C16.6367 2.63921 17.2098 3.13646 17.5623 3.78217C17.9148 4.42787 18.023 5.17888 17.8673 5.89785C17.7116 6.61681 17.3022 7.2557 16.7142 7.69767C16.1261 8.13965 15.3986 8.35517 14.6647 8.30483C13.9307 8.2545 13.2395 7.94166 12.7172 7.42354L8.24599 9.86216C8.33519 10.2827 8.33519 10.7173 8.24599 11.1379L12.7172 13.5765C13.2395 13.0584 13.9307 12.7456 14.6647 12.6952C15.3986 12.6449 16.1261 12.8604 16.7142 13.3024C17.3022 13.7444 17.7116 14.3833 17.8673 15.1022C18.023 15.8212 17.9148 16.5722 17.5623 17.2179C17.2098 17.8636 16.6367 18.3609 15.9478 18.6187C15.2588 18.8766 14.5 18.8779 13.8102 18.6223C13.1204 18.3667 12.5456 17.8713 12.191 17.2268C11.8364 16.5823 11.7256 15.8316 11.879 15.1122Z" fill="white"/>
</svg>
