<svg width="24" height="24" viewBox="0 0 24 24" fill="none" xmlns="http://www.w3.org/2000/svg">
<path d="M10 7.85319C10 7.60008 9.70588 7.46072 9.51 7.62102L6.68589 9.93219C6.63229 9.97605 6.56516 10 6.49589 10H3.3C3.13431 10 3 10.1343 3 10.3V13.7C3 13.8657 3.13431 14 3.3 14H6.49589C6.56516 14 6.63229 14.024 6.68589 14.0679L9.51 16.379C9.70588 16.5393 10 16.4 10 16.1469V7.85319ZM5.889 16H2C1.73478 16 1.48043 15.8947 1.29289 15.7071C1.10536 15.5196 1 15.2652 1 15V9.00002C1 8.7348 1.10536 8.48045 1.29289 8.29291C1.48043 8.10538 1.73478 8.00002 2 8.00002H5.7819C5.85116 8.00002 5.91829 7.97606 5.97189 7.9322L11.183 3.66802C11.2563 3.60797 11.3451 3.56996 11.4391 3.55841C11.5331 3.54687 11.6284 3.56227 11.714 3.60282C11.7996 3.64337 11.872 3.7074 11.9226 3.78745C11.9732 3.86751 12.0001 3.9603 12 4.05502V19.945C12.0001 20.0397 11.9732 20.1325 11.9226 20.2126C11.872 20.2926 11.7996 20.3567 11.714 20.3972C11.6284 20.4378 11.5331 20.4532 11.4391 20.4416C11.3451 20.4301 11.2563 20.3921 11.183 20.332L5.89077 16.0007C5.89027 16.0002 5.88965 16 5.889 16V16ZM19.6152 19.9384C19.4995 20.0494 19.3168 20.0448 19.2035 19.9315L18.2149 18.9429C18.0929 18.8209 18.099 18.6217 18.2238 18.5025C19.0631 17.7006 19.7398 16.7429 20.2152 15.6817C20.734 14.5237 21.0015 13.2689 21 12C21.0012 10.6661 20.7054 9.34867 20.1339 8.14339C19.6098 7.0382 18.8661 6.05276 17.9493 5.24659C17.8159 5.12927 17.8051 4.92291 17.9307 4.79729L18.9208 3.80726C19.0311 3.69691 19.2079 3.68927 19.3245 3.79306C20.4464 4.79237 21.3519 6.01208 21.9841 7.37722C22.6549 8.82593 23.0016 10.4035 23 12C23 15.12 21.7012 17.9364 19.6152 19.9384ZM16.0695 16.4088C15.9551 16.5145 15.7784 16.5064 15.6682 16.3963L14.6826 15.4107C14.5546 15.2826 14.5691 15.0716 14.7027 14.9494C15.0688 14.6144 15.37 14.2133 15.5899 13.7663C15.8602 13.2167 16.0006 12.6124 16 12C16 10.7051 15.385 9.55364 14.4297 8.82269C14.2765 8.70548 14.2502 8.47787 14.3865 8.34149L15.3767 7.35129C15.4816 7.24646 15.6478 7.23329 15.7633 7.32618C16.4275 7.86029 16.9709 8.53065 17.3562 9.29314C17.7802 10.1324 18.0008 11.0597 18 12C18 13.743 17.2568 15.3123 16.0695 16.4088Z" fill="white"/>
</svg>
