<svg width="23" height="18" viewBox="0 0 23 18" fill="none" xmlns="http://www.w3.org/2000/svg">
<path d="M9 4.85319C9 4.60008 8.70588 4.46072 8.51 4.62102L5.68589 6.93219C5.63229 6.97605 5.56516 7.00002 5.49589 7.00002H2.3C2.13431 7.00002 2 7.13434 2 7.30002V10.7C2 10.8657 2.13431 11 2.3 11H5.49589C5.56516 11 5.63229 11.024 5.68589 11.0679L8.51 13.379C8.70588 13.5393 9 13.4 9 13.1469V4.85319ZM4.889 13H1C0.734784 13 0.48043 12.8947 0.292893 12.7071C0.105357 12.5196 0 12.2652 0 12V6.00002C0 5.7348 0.105357 5.48045 0.292893 5.29291C0.48043 5.10538 0.734784 5.00002 1 5.00002H4.7819C4.85116 5.00002 4.91829 4.97606 4.97189 4.9322L10.183 0.668021C10.2563 0.607968 10.3451 0.569958 10.4391 0.558415C10.5331 0.546871 10.6284 0.56227 10.714 0.602819C10.7996 0.643367 10.872 0.707397 10.9226 0.787454C10.9732 0.867511 11.0001 0.960301 11 1.05502V16.945C11.0001 17.0397 10.9732 17.1325 10.9226 17.2126C10.872 17.2926 10.7996 17.3567 10.714 17.3972C10.6284 17.4378 10.5331 17.4532 10.4391 17.4416C10.3451 17.4301 10.2563 17.3921 10.183 17.332L4.89077 13.0007C4.89027 13.0002 4.88965 13 4.889 13V13ZM19.6261 8.78789C19.509 8.90505 19.509 9.095 19.6261 9.21215L22.7379 12.3239C22.855 12.441 22.855 12.631 22.7379 12.7482L21.7481 13.7379C21.631 13.855 21.441 13.855 21.3239 13.7379L18.2121 10.6262C18.095 10.509 17.905 10.509 17.7879 10.6262L14.6761 13.7379C14.559 13.855 14.369 13.855 14.2519 13.7379L13.2621 12.7482C13.145 12.631 13.145 12.441 13.2621 12.3239L16.3739 9.21215C16.491 9.095 16.491 8.90505 16.3739 8.78789L13.2621 5.67615C13.145 5.559 13.145 5.36905 13.2621 5.25189L14.2519 4.26215C14.369 4.145 14.559 4.145 14.6761 4.26215L17.7879 7.37389C17.905 7.49105 18.095 7.49105 18.2121 7.37389L21.3239 4.26215C21.441 4.145 21.631 4.145 21.7481 4.26215L22.7379 5.25189C22.855 5.36905 22.855 5.559 22.7379 5.67615L19.6261 8.78789Z" fill="white"/>
</svg>
