<svg width="108" height="44" viewBox="0 0 108 44" fill="none" xmlns="http://www.w3.org/2000/svg">
<path d="M86.5202 20.0646C86.699 19.6708 87.0209 19.4829 87.4856 19.5007C87.7179 19.5007 87.9324 19.5991 88.129 19.7962C88.3258 19.9931 88.4241 20.181 88.4241 20.3601C88.4241 20.5928 88.3882 20.7987 88.3169 20.9778L84.4823 30.1355C84.3752 30.3503 84.2143 30.5382 83.9998 30.6994C83.803 30.8605 83.5617 30.9412 83.2758 30.9412H83.0613C82.7931 30.9412 82.5518 30.8605 82.3373 30.6994C82.1228 30.5382 81.9619 30.3503 81.8546 30.1355L78.047 20.9778C77.9756 20.7987 77.9397 20.6107 77.9397 20.4138C77.9397 20.199 78.0292 19.9931 78.2079 19.7962C78.3867 19.5991 78.6012 19.5007 78.8515 19.5007C79.3162 19.5007 79.638 19.6888 79.8167 20.0646L83.1685 28.6316L86.5202 20.0646Z" fill="white"/>
<path d="M90.7835 20.5212C90.7835 20.2167 90.8818 19.975 91.0785 19.7961C91.2751 19.599 91.5164 19.5006 91.8025 19.5006C92.0884 19.5006 92.3209 19.599 92.4996 19.7961C92.6784 19.975 92.7677 20.2167 92.7677 20.5212V29.9475C92.7677 30.2159 92.6784 30.4487 92.4996 30.6456C92.3209 30.8425 92.0884 30.9411 91.8025 30.9411C91.5164 30.9411 91.2751 30.8425 91.0785 30.6456C90.8818 30.4487 90.7835 30.2159 90.7835 29.9475V20.5212ZM92.9823 16.1974C92.9823 16.5197 92.875 16.7882 92.6605 17.003C92.4459 17.2179 92.1777 17.3253 91.8561 17.3253H91.722C91.4002 17.3253 91.1322 17.2179 90.9176 17.003C90.7209 16.7882 90.6226 16.5197 90.6226 16.1974V16.1168C90.6226 15.7946 90.7298 15.526 90.9444 15.3112C91.1589 15.0963 91.4181 14.9889 91.722 14.9889H91.8561C92.1777 14.9889 92.4459 15.0963 92.6605 15.3112C92.875 15.526 92.9823 15.7946 92.9823 16.1168V16.1974Z" fill="white"/>
<path d="M104.727 29.3833C103.636 30.4934 102.385 31.0484 100.973 31.0484C99.5786 31.0484 98.3631 30.5561 97.3262 29.5714C96.218 28.4614 95.6549 27.0112 95.637 25.2208C95.637 23.4663 96.2 22.0251 97.3262 20.897C98.3452 19.8766 99.5607 19.3754 100.973 19.3931C102.385 19.3931 103.636 19.9483 104.727 21.0582V15.6603C104.727 15.3738 104.816 15.1411 104.995 14.962C105.192 14.7651 105.433 14.6666 105.719 14.6666C106.005 14.6666 106.237 14.7651 106.416 14.962C106.613 15.1411 106.711 15.3738 106.711 15.6603V29.9475C106.711 30.2159 106.613 30.4487 106.416 30.6456C106.237 30.8425 106.005 30.9411 105.719 30.9411C105.433 30.9411 105.192 30.8425 104.995 30.6456C104.816 30.4487 104.727 30.2159 104.727 29.9475V29.3833ZM104.727 22.9113C103.726 21.8012 102.564 21.2553 101.241 21.273C99.5607 21.273 98.4614 22.0161 97.943 23.502C97.7642 24.0034 97.6659 24.5763 97.648 25.2208C97.648 26.474 97.9877 27.4677 98.667 28.2018C99.2927 28.8641 100.151 29.1864 101.241 29.1687C102.564 29.1687 103.726 28.6225 104.727 27.5304V22.9113Z" fill="white"/>
<path d="M61.288 15.3649C61.6993 15.3649 62.0388 15.5081 62.307 15.7945C62.5929 16.081 62.7361 16.4212 62.7361 16.8151V29.9475C62.7361 30.2159 62.6378 30.4487 62.441 30.6456C62.2444 30.8425 62.0121 30.9411 61.7439 30.9411C61.4758 30.9411 61.2433 30.8425 61.0467 30.6456C60.8501 30.4487 60.7518 30.2159 60.7518 29.9475V17.4596L55.6571 30.0279C55.5499 30.2965 55.371 30.5204 55.1208 30.6993C54.8706 30.8605 54.5845 30.9411 54.2628 30.9411C53.941 30.9411 53.6549 30.8605 53.4047 30.6993C53.1545 30.5382 52.9667 30.3145 52.8416 30.0279L47.7737 17.4596V29.9475C47.7737 30.2159 47.6754 30.4487 47.4788 30.6456C47.2822 30.8425 47.0408 30.9411 46.7548 30.9411C46.4867 30.9411 46.2544 30.8425 46.0576 30.6456C45.861 30.4487 45.7627 30.2159 45.7627 29.9475V16.8151C45.7627 16.4212 45.8967 16.081 46.1649 15.7945C46.451 15.5081 46.7995 15.3649 47.2106 15.3649H47.9346C48.2207 15.3649 48.4799 15.4544 48.7122 15.6334C48.9624 15.8125 49.1502 16.0273 49.2753 16.278L54.2628 28.7389L59.2502 16.278C59.3575 16.0273 59.5272 15.8125 59.7597 15.6334C60.0099 15.4544 60.287 15.3649 60.5909 15.3649H61.288Z" fill="#999999"/>
<path d="M67.9379 25.9459C68.063 26.9308 68.4384 27.7184 69.0641 28.3092C69.7077 28.8822 70.5836 29.1687 71.6918 29.1687C72.8181 29.1687 73.7743 28.9896 74.5609 28.6315C74.8111 28.5061 75.0346 28.4434 75.2312 28.4434C75.428 28.4257 75.6067 28.4972 75.7676 28.6583C75.9464 28.8195 76.0357 28.9986 76.0357 29.1955C76.0357 29.5893 75.8748 29.8668 75.553 30.028C75.2492 30.1891 74.972 30.3323 74.7218 30.4577C74.4716 30.5829 74.2034 30.6904 73.9175 30.78C73.2559 30.959 72.4873 31.0484 71.6114 31.0484C69.806 31.0484 68.4027 30.5472 67.4016 29.5445C66.4184 28.5241 65.9268 27.0829 65.9268 25.2208C65.9268 23.6095 66.3469 22.2668 67.1871 21.1926C68.1345 19.9931 69.4662 19.3932 71.1823 19.3932C72.827 19.3932 74.123 19.9483 75.0703 21.0582C75.9642 22.0966 76.4112 23.3946 76.4112 24.9524C76.4112 25.2208 76.3129 25.4536 76.1161 25.6505C75.9374 25.8474 75.705 25.9459 75.419 25.9459H67.9379ZM71.1823 21.0852C69.8774 21.0852 68.9299 21.6671 68.3401 22.8307C68.1256 23.2425 67.9916 23.7349 67.9379 24.3078H74.4269C74.3733 23.2694 73.9889 22.4459 73.2739 21.837C72.7018 21.3358 72.0046 21.0852 71.1823 21.0852Z" fill="#999999"/>
<path d="M3.66114 16.489C3.66017 15.0447 3.94367 13.6144 4.49543 12.28C5.04716 10.9456 5.8563 9.73333 6.87652 8.71256C7.89671 7.69182 9.10796 6.88264 10.4408 6.33138C11.7737 5.78011 13.2021 5.49761 14.6442 5.50002H29.2883C35.3527 5.50002 40.2713 10.4408 40.2713 16.489V38.5H14.6442C8.57971 38.5 3.66114 33.5592 3.66114 27.511V16.489ZM25.6272 20.1667V23.8333H29.2883V20.1667H25.6272ZM14.6442 20.1667V23.8333H18.3052V20.1667H14.6442Z" fill="url(#paint0_linear_56_35)"/>
<path d="M25.6272 20.1666V23.8333H29.2882V20.1666H25.6272Z" fill="#0066FA"/>
<path d="M14.644 20.1666V23.8333H18.3051V20.1666H14.644Z" fill="#0066FA"/>
<path d="M24.2542 16.5H14.644C13.633 16.5 12.8135 17.3208 12.8135 18.3333V25.6667C12.8135 26.6792 13.633 27.5 14.644 27.5H24.2542C25.0124 27.5 25.627 26.8844 25.627 26.125C25.627 24.992 26.9186 24.3452 27.8236 25.025L28.3728 25.4375C29.5041 26.2873 31.1186 25.4788 31.1186 24.0625V19.9375C31.1186 18.5213 29.5041 17.7127 28.3728 18.5625L27.8236 18.975C26.9186 19.6548 25.627 19.008 25.627 17.875C25.627 17.1156 25.0124 16.5 24.2542 16.5Z" fill="white"/>
<defs>
<linearGradient id="paint0_linear_56_35" x1="41.5" y1="6" x2="7.5" y2="37" gradientUnits="userSpaceOnUse">
<stop offset="0.0295815" stop-color="#4591FF"/>
<stop offset="1" stop-color="#0066FA"/>
</linearGradient>
</defs>
</svg>
